<svg xmlns="http://www.w3.org/2000/svg" viewBox="0 0 100 100"><defs><filter height="2.6459" width="1.1437" y="-.82295" x="-.071873" id="f"><feGaussianBlur stdDeviation=".85723739"/></filter></defs><g transform="translate(-261.64 -240.64)"><ellipse style="fill:#939393;filter:url(#f)" transform="matrix(3.02269,0,0,3.62725,264.79094,221.42783)" cx="15.5" cy="29.4375" rx="14.3125" ry="1.25"/><path style="fill:#803300;fill-rule:evenodd;stroke-width:1.10000002" d="m346.98294 321.45083v-72.6231h-67.8051v72.7881l67.8051-.16445z"/><path style="fill:#803300;fill-rule:evenodd;stroke-width:1.10000002" d="m346.82894 327.57783v-11.3476h-65.4555c-1.72271 3.14435-4.03535 6.98126.0 11.5115l65.4555-.16446z"/><path style="fill:#540;fill-rule:evenodd;stroke:#000;stroke-width:3.02269006" d="m346.98294 254.13083v-11.3476l-63.4491-.18891c-5.58239 3.65651-6.96498 7.85774-6.51772 11.6776l69.9677-.14084z"/><path style="fill:#b3b3b3;stroke-width:1.10000002" d="M337.13794 246.96983h5.7883101v37.581501H337.13794z"/><path style="fill:#f2f2f2;fill-rule:evenodd;stroke-width:1.10000002" d="m284.15094 246.96983c-3.97122 2.46136-4.49548 5.48152-4.06175 8.42611l65.3048.1653c-.96822-.55935-2.26721-6.30168-2.6125-8.59144h-58.6311z"/><path style="fill:#fff6d5;stroke:#000;stroke-width:3.02269006;stroke-linecap:round;fill-opacity:1" d="M277.00092 254.14183h72.297501v73.626297H277.00092z"/><path style="fill:#ffe680;stroke-width:1.10000002" d="M281.56592 258.89383h63.2533v64.505096h-63.2533z"/><path style="fill:none;stroke:#47403f;stroke-width:.907;stroke-miterlimit:4;stroke-dasharray:none;stroke-opacity:1" d="m279.89394 257.08983v67.7589"/><text style="font-style:normal;font-weight:400;font-size:35.20000076px;line-height:1.25;font-family:sans-serif;letter-spacing:0;word-spacing:0;fill:#000;fill-opacity:1;stroke:none;stroke-width:1.10000002" x="286.33997" y="310.98984"><tspan x="286.33997" y="310.98984" style="font-size:52.79999924px;stroke-width:1.10000002">揺</tspan></text></g></svg>