<svg version="1.0" xmlns="http://www.w3.org/2000/svg" width="960pt" height="960pt" viewBox="0 0 960 960"><g transform="translate(0.000000,960.000000) scale(0.100000,-0.100000)" fill="#000" stroke="none"><path d="M1990 9513c-36-25-107-79-158-120-294-238-474-548-5e2-861-4-48-6-1742-4-3764l2-3678h3615 3615v3680 3680h-110-110v544 544l-1937 6c-1066 3-2480 8-3143 10l-1205 5-65-46zm5821-625c15-89 70-327 95-415l6-23H4841c-3007 0-3071 0-3071 19 0 10 9 50 21 87 42 138 143 273 282 376l71 53 2556 5c1405 3 2676 5 2824 5h269l18-107zm459-4118V1380H4945 1620v3390 3390h3325 3325V4770z"/><path d="M1710 4770V1520h40 40v3250 3250h-40-40V4770z"/><path d="M33e2 6575v-505h-350-350v-175-175h350 350v-549c0-515-1-550-17-555-64-19-473-131-588-161-77-20-143-40-147-44-4-3 13-84 37-180 25-95 45-175 45-177 0-12 59 4 334 90 166 52 309 98 319 101 16 7 17-30 17-690 0-698-1-725-34-747-6-4-134-8-283-8-150 0-273-1-273-2 0-2 14-37 31-78 17-41 41-115 54-165l23-90 98-3c129-4 381 14 472 33 150 31 223 96 258 230 11 40 14 214 14 842v792l133 41c258 81 482 152 485 155 6 5-41 313-48 326-5 7-96-16-282-70-152-45-278-81-282-81-3 0-6 223-6 495v495l283 2 282 3 3 173 2 172h-285-285v505 505h-180-180v-505z"/><path d="M6710 7009c-454-114-1497-248-2320-299-102-7-190-13-197-15-8-3-2-27 18-75 17-39 38-103 48-142l18-72 59 2c360 14 1099 77 1541 132 433 54 894 134 1102 190l40 11-110 142c-60 78-113 143-117 143-4 1-41-7-82-17z"/><path d="M6635 6373c-96-245-309-685-448-923l-55-95-918-5-919-5-3-162-2-163h6e2 6e2v-260-260h-670-670v-160-160h670 670v-565-565l-372 2-373 3-3 413-2 412h-170-170v-710-710h170 170v135 135h945 945v-125-125h175 175v7e2 7e2h-175-175l-2-412-3-413-387-3-388-2v565 565l673 2 672 3 3 158 3 157h-676-675v260 260h615 615l-2 163-3 162-287 3c-159 1-288 5-288 8 0 3 15 28 33 57 66 103 213 367 359 641 112 214 145 282 134 288-11 6-345 128-351 128-1 0-19-44-40-97z"/><path d="M5450 6356c-74-18-134-36-133-42 1-5 23-67 48-139 57-159 118-395 139-534 8-57 17-106 19-108 5-5 298 77 309 86 20 17-60 356-131 561-59 170-77 210-98 209-10 0-79-15-153-33z"/><path d="M4586 6259c-76-21-141-41-144-43-3-3 14-47 38-98 93-202 204-502 231-629 8-35 15-49 24-45 8 3 79 26 159 51 113 36 146 50 146 63 0 28-84 268-135 386-54 126-161 342-172 349-4 2-70-13-147-34z"/></g></svg>