<?xml version="1.0" standalone="no"?>
<!DOCTYPE svg PUBLIC "-//W3C//DTD SVG 20010904//EN"
 "http://www.w3.org/TR/2001/REC-SVG-20010904/DTD/svg10.dtd">
<svg version="1.0" xmlns="http://www.w3.org/2000/svg"
 width="960.000000pt" height="960.000000pt" viewBox="0 0 960.000000 960.000000"
 preserveAspectRatio="xMidYMid meet">
<metadata>
Created by potrace 1.11, written by Peter Selinger 2001-2013
</metadata>
<g transform="translate(0.000000,960.000000) scale(0.100000,-0.100000)"
fill="#000000" stroke="none">
<path d="M1990 9513 c-36 -25 -107 -79 -158 -120 -294 -238 -474 -548 -500
-861 -4 -48 -6 -1742 -4 -3764 l2 -3678 3615 0 3615 0 0 3680 0 3680 -110 0
-110 0 0 544 0 544 -1937 6 c-1066 3 -2480 8 -3143 10 l-1205 5 -65 -46z
m5821 -625 c15 -89 70 -327 95 -415 l6 -23 -3071 0 c-3007 0 -3071 0 -3071 19
0 10 9 50 21 87 42 138 143 273 282 376 l71 53 2556 5 c1405 3 2676 5 2824 5
l269 0 18 -107z m459 -4118 l0 -3390 -3325 0 -3325 0 0 3390 0 3390 3325 0
3325 0 0 -3390z"/>
<path d="M1710 4770 l0 -3250 40 0 40 0 0 3250 0 3250 -40 0 -40 0 0 -3250z"/>
<path d="M3300 6575 l0 -505 -350 0 -350 0 0 -175 0 -175 350 0 350 0 0 -549
c0 -515 -1 -550 -17 -555 -64 -19 -473 -131 -588 -161 -77 -20 -143 -40 -147
-44 -4 -3 13 -84 37 -180 25 -95 45 -175 45 -177 0 -12 59 4 334 90 166 52
309 98 319 101 16 7 17 -30 17 -690 0 -698 -1 -725 -34 -747 -6 -4 -134 -8
-283 -8 -150 0 -273 -1 -273 -2 0 -2 14 -37 31 -78 17 -41 41 -115 54 -165
l23 -90 98 -3 c129 -4 381 14 472 33 150 31 223 96 258 230 11 40 14 214 14
842 l0 792 133 41 c258 81 482 152 485 155 6 5 -41 313 -48 326 -5 7 -96 -16
-282 -70 -152 -45 -278 -81 -282 -81 -3 0 -6 223 -6 495 l0 495 283 2 282 3 3
173 2 172 -285 0 -285 0 0 505 0 505 -180 0 -180 0 0 -505z"/>
<path d="M6710 7009 c-454 -114 -1497 -248 -2320 -299 -102 -7 -190 -13 -197
-15 -8 -3 -2 -27 18 -75 17 -39 38 -103 48 -142 l18 -72 59 2 c360 14 1099 77
1541 132 433 54 894 134 1102 190 l40 11 -110 142 c-60 78 -113 143 -117 143
-4 1 -41 -7 -82 -17z"/>
<path d="M6635 6373 c-96 -245 -309 -685 -448 -923 l-55 -95 -918 -5 -919 -5
-3 -162 -2 -163 600 0 600 0 0 -260 0 -260 -670 0 -670 0 0 -160 0 -160 670 0
670 0 0 -565 0 -565 -372 2 -373 3 -3 413 -2 412 -170 0 -170 0 0 -710 0 -710
170 0 170 0 0 135 0 135 945 0 945 0 0 -125 0 -125 175 0 175 0 0 700 0 700
-175 0 -175 0 -2 -412 -3 -413 -387 -3 -388 -2 0 565 0 565 673 2 672 3 3 158
3 157 -676 0 -675 0 0 260 0 260 615 0 615 0 -2 163 -3 162 -287 3 c-159 1
-288 5 -288 8 0 3 15 28 33 57 66 103 213 367 359 641 112 214 145 282 134
288 -11 6 -345 128 -351 128 -1 0 -19 -44 -40 -97z"/>
<path d="M5450 6356 c-74 -18 -134 -36 -133 -42 1 -5 23 -67 48 -139 57 -159
118 -395 139 -534 8 -57 17 -106 19 -108 5 -5 298 77 309 86 20 17 -60 356
-131 561 -59 170 -77 210 -98 209 -10 0 -79 -15 -153 -33z"/>
<path d="M4586 6259 c-76 -21 -141 -41 -144 -43 -3 -3 14 -47 38 -98 93 -202
204 -502 231 -629 8 -35 15 -49 24 -45 8 3 79 26 159 51 113 36 146 50 146 63
0 28 -84 268 -135 386 -54 126 -161 342 -172 349 -4 2 -70 -13 -147 -34z"/>
</g>
</svg>
